<svg width="24" height="24" viewBox="0 0 24 24" fill="none" xmlns="http://www.w3.org/2000/svg">
<path d="M10.7327 19.7885C11.0326 20.0742 11.5074 20.0627 11.7931 19.7627C12.0787 19.4628 12.0672 18.9881 11.7673 18.7024L5.51587 12.7478L20.25 12.7478C20.6642 12.7478 21 12.412 21 11.9978C21 11.5836 20.6642 11.2478 20.25 11.2478L5.51577 11.2478L11.7673 5.29307C12.0672 5.00738 12.0787 4.53265 11.7931 4.23272C11.5074 3.93279 11.0326 3.92125 10.7327 4.20694L3.31379 11.2736C3.14486 11.4345 3.04491 11.6398 3.01393 11.8532C3.00479 11.9 3 11.9483 3 11.9978C3 12.0473 3.00481 12.0958 3.01398 12.1427C3.04502 12.3559 3.14496 12.561 3.31379 12.7218L10.7327 19.7885Z" fill="#3E3E52"/>
</svg>
