<svg xmlns="http://www.w3.org/2000/svg" width="32" height="32" viewBox="0 0 32 32" fill="none">
    <rect x="9.52551" y="8.03333" width="11.0431" height="17.0667" fill="white"/>
    <path d="M27.8632 5.70762C27.8203 5.52869 27.7138 5.37215 27.5642 5.26806C27.4146 5.16398 27.2323 5.11968 27.0525 5.14369C25.0642 5.3573 23.0555 5.03668 21.2276 4.21397C19.3065 3.37447 17.6387 2.03352 16.3935 0.32745C16.3227 0.226772 16.2292 0.144715 16.1209 0.0881013C16.0125 0.0314877 15.8924 0.00195313 15.7705 0.00195313C15.6487 0.00195313 15.5285 0.0314877 15.4202 0.0881013C15.3118 0.144715 15.2183 0.226772 15.1475 0.32745C13.9159 2.06514 12.2461 3.43399 10.3134 4.29018C8.48804 5.12132 6.47708 5.44229 4.48854 5.2199C4.31109 5.19986 4.13252 5.24602 3.98613 5.34978C3.83973 5.45354 3.7355 5.60781 3.69287 5.78383C3.23994 7.59744 3.00801 9.46065 3.00229 11.3317C2.9571 14.557 3.58114 17.7559 4.83383 20.7203C6.18023 23.8774 8.23695 26.6702 10.8389 28.8744C12.2549 30.0966 13.825 31.1217 15.5078 31.9226C15.6076 31.9747 15.7183 32.002 15.8306 32.002C15.9429 32.002 16.0535 31.9747 16.1533 31.9226C17.8408 31.1217 19.4159 30.0967 20.8373 28.8744C23.4032 26.657 25.4279 23.8659 26.7523 20.7203C28.0024 17.7546 28.6313 14.5573 28.5988 11.3317C28.577 9.43378 28.33 7.54549 27.8632 5.70762ZM17.8047 12.4138H20.1467L19.366 13.6026H17.8648C17.7969 14.1495 17.6013 14.6721 17.2943 15.1267C16.9816 15.5518 16.5886 15.9093 16.1383 16.1784L15.9582 16.2698C15.2481 16.6272 14.4687 16.8199 13.6763 16.8337C13.6763 16.8337 15.3126 18.8913 18.6004 22.7931H16.4236L11.6496 17.0929V15.8735C11.9796 15.8916 12.3104 15.8916 12.6404 15.8735C14.4419 15.8735 15.5528 15.2791 15.9882 14.1056C16.0604 13.9321 16.0962 13.7452 16.0933 13.5569H11.2292L12.0249 12.4138H15.8981C15.6184 11.9 15.1569 11.5133 14.607 11.3317C14.2163 11.1901 13.8058 11.1129 13.391 11.103H11.2142L11.9498 9.97518V9.88373H20.1317L19.6513 10.7677C19.5789 10.8889 19.4933 11.0013 19.3961 11.103H17.1892C17.5054 11.4767 17.7178 11.9291 17.8047 12.4138Z" fill="#86003E"/>
</svg>