<svg xmlns="http://www.w3.org/2000/svg" width="33" height="31" viewBox="0 0 33 31" fill="none">
    <path d="M29.1608 29.72H1.76789C1.48651 29.4987 1.25803 29.1981 1.08487 28.8085C0.54856 27.594 1.0969 26.3794 2.29699 25.8335H28.7616C29.2979 26.0884 29.7067 26.5189 29.9232 27.1827C30.2454 28.1615 29.8943 29.1476 29.1608 29.72Z" fill="#FED9D5"/>
    <path d="M29.9232 27.1827C29.7043 26.5189 29.2955 26.0884 28.7616 25.8335C28.5619 25.7373 28.3431 25.6675 28.1098 25.6194C27.8885 25.5737 27.725 25.3885 27.6937 25.1673C26.9121 19.4145 23.7664 15.7469 18.2397 14.15C17.98 14.0755 17.8164 13.8157 17.8645 13.5488C18.0858 12.3294 17.7731 11.4684 16.9025 10.8528C16.08 10.2708 14.9449 10.2539 14.0911 10.8095C13.194 11.3939 12.8766 12.2404 13.0738 13.5632C13.1123 13.8229 12.9511 14.0706 12.6986 14.1428C7.16951 15.759 4.00454 19.4242 3.23013 25.2058C3.20127 25.4222 3.04014 25.593 2.8309 25.6459C2.64091 25.694 2.46294 25.7565 2.29699 25.8335C1.0969 26.3794 0.54856 27.5939 1.08487 28.8085C1.25803 29.1981 1.48651 29.4987 1.76789 29.7199C2.2056 30.0663 2.76597 30.2178 3.42253 30.2178C11.4528 30.213 19.4855 30.2178 27.5158 30.2178C27.6553 30.2178 27.7947 30.2226 27.9318 30.2106C28.4032 30.1625 28.8217 29.9869 29.1608 29.7248C29.8943 29.1524 30.2454 28.1687 29.9232 27.1875V27.1827ZM14.8919 11.5189C15.8612 11.1245 16.941 11.822 16.9795 12.8682C17.0059 13.5608 16.6524 13.9047 15.955 13.8686C15.7938 13.8614 15.195 13.8686 15.1276 13.8782C14.5144 13.9744 14.1055 13.9552 13.9805 13.1471C13.8794 12.4858 14.2594 11.7763 14.8895 11.5189H14.8919ZM15.397 14.8619C20.219 14.7561 25.5749 18.8013 26.2387 22.9018C26.2892 23.2217 26.0391 23.5078 25.7168 23.5078H5.22387C4.90641 23.5078 4.6587 23.2313 4.69958 22.9162C5.21665 18.9672 10.4355 14.9701 15.397 14.8595V14.8619ZM4.83426 24.5324H26.0992C26.3758 24.5324 26.6067 24.7464 26.6259 25.023C26.6476 25.3284 26.4047 25.5858 26.0992 25.5858H4.83426C4.5168 25.5858 4.2739 25.3092 4.30997 24.9941C4.34124 24.7296 4.56731 24.53 4.83426 24.53V24.5324ZM1.89536 27.808C1.95548 27.161 2.45572 26.668 3.12912 26.6055C3.2662 26.591 3.4081 26.6007 3.54519 26.6007H15.4932C19.4999 26.6007 23.5042 26.6007 27.511 26.6031C28.3744 26.6031 28.9275 27.0239 29.0117 27.7262C29.1175 28.592 28.5162 29.2173 27.5254 29.2293C25.8347 29.2462 24.144 29.2486 22.4557 29.2462C16.2267 29.2438 9.99779 29.2365 3.76885 29.2269C3.47063 29.2269 3.16039 29.2245 2.8766 29.15C2.24168 28.9816 1.84245 28.402 1.89536 27.808Z" fill="#1D1D1D"/>
    <path d="M19.8897 8.27462C19.4592 7.52186 19.5482 7.12985 20.0941 6.41075C20.2793 6.16785 20.426 5.89368 20.5655 5.61229C20.7988 5.13851 20.8252 4.58536 20.6352 4.09234C20.4164 3.51755 20.2095 2.98123 19.9642 2.46416C19.9474 2.42568 19.9209 2.39201 19.8873 2.36315C19.6179 2.11303 19.1706 2.27897 19.1056 2.64213C19.0936 2.69985 19.0912 2.75757 19.096 2.81048C19.096 2.82731 19.1008 2.84174 19.1032 2.85858C19.1994 3.3035 19.4159 3.72437 19.6083 4.14284C19.8969 4.76574 19.7574 5.27078 19.3389 5.79988C19.0359 6.18468 18.7593 6.64644 18.6559 7.11542C18.5357 7.66375 18.6559 8.13754 18.8796 8.57525C18.8796 8.57525 18.882 8.57765 18.882 8.58006C18.9998 8.81094 19.1441 9.03219 19.2956 9.24864C19.2956 9.24864 19.2956 9.25105 19.298 9.25346C19.4399 9.47712 19.5842 9.69357 19.7357 9.90521C19.7598 9.93888 19.7935 9.96774 19.8319 9.99419C20.1518 10.1986 20.5727 9.9485 20.5751 9.56851C20.5751 9.48915 20.5655 9.41459 20.5366 9.34725C20.3803 8.96486 20.1302 8.61854 19.8873 8.27462H19.8897Z" fill="#1D1D1D"/>
    <path d="M11.7075 6.28567C11.277 5.53291 11.366 5.14089 11.912 4.4218C12.0971 4.1789 12.2439 3.90473 12.3833 3.62334C12.6166 3.14956 12.6431 2.59641 12.4531 2.10339C12.2342 1.52859 12.0274 0.992278 11.7821 0.475204C11.7653 0.436724 11.7388 0.403054 11.7051 0.374194C11.4358 0.124075 10.9884 0.290021 10.9235 0.653175C10.9115 0.710895 10.9091 0.768614 10.9139 0.821524C10.9139 0.838359 10.9187 0.852788 10.9211 0.869623C11.0173 1.31455 11.2337 1.73542 11.4261 2.15389C11.7147 2.77678 11.5753 3.28184 11.1568 3.81093C10.8538 4.19573 10.5772 4.65749 10.4738 5.12646C10.3535 5.6748 10.4738 6.14858 10.6974 6.58629C10.6974 6.58629 10.6998 6.5887 10.6998 6.59111C10.8177 6.82199 10.962 7.04325 11.1135 7.2597C11.1135 7.2597 11.1135 7.2621 11.1159 7.2645C11.2578 7.48817 11.4021 7.70462 11.5536 7.91626C11.5777 7.94993 11.6113 7.97879 11.6498 8.00525C11.9697 8.20967 12.3906 7.95955 12.393 7.57956C12.393 7.50019 12.3833 7.42564 12.3545 7.3583C12.1982 6.97591 11.948 6.62959 11.7051 6.28567H11.7075Z" fill="#1D1D1D"/>
    <path d="M15.1856 16.7378C15.1856 16.7378 15.1976 16.7378 15.2024 16.7378C15.7989 16.7426 15.8157 17.63 15.2193 17.6685C15.2048 17.6685 15.1904 17.6685 15.1736 17.6709C12.8696 17.7695 10.7772 18.6955 9.23084 20.4439C9.0697 20.6243 8.75464 20.6916 8.5863 20.593C8.18947 20.3621 8.49491 19.9388 8.74021 19.6526C10.3852 17.7359 12.4944 16.7378 15.1832 16.7378H15.1856Z" fill="#1D1D1D"/>
    <path d="M25.0868 26.8171C28.7421 26.8171 31.7054 23.8539 31.7054 20.1986C31.7054 16.5432 28.7421 13.58 25.0868 13.58C21.4315 13.58 18.4683 16.5432 18.4683 20.1986C18.4683 23.8539 21.4315 26.8171 25.0868 26.8171Z" fill="#D63941"/>
    <path d="M24.0597 16.3121C23.6316 16.1895 23.2372 16.4155 22.9799 16.8845C22.6961 17.4016 22.6264 17.9499 22.8091 18.5151C22.9438 18.9312 23.242 19.1789 23.7038 19.2679C23.6629 19.8186 23.6244 20.3573 23.5787 20.896C23.5162 21.6224 23.4248 22.3487 23.3911 23.075C23.3791 23.3419 23.4513 23.6353 23.5619 23.8831C23.7038 24.2005 24.0477 24.1957 24.1872 23.8782C24.293 23.6353 24.3628 23.3516 24.3531 23.087C24.3315 22.4593 24.2521 21.834 24.1992 21.2063C24.1439 20.5666 24.091 19.9268 24.0333 19.2631C24.5215 19.1741 24.8269 18.9119 24.9472 18.4742C25.13 17.8177 25.0338 17.1924 24.6033 16.656C24.4758 16.4973 24.2593 16.3698 24.0597 16.3121Z" fill="white"/>
    <path d="M27.4628 16.4492C27.4628 16.4492 27.4628 16.4396 27.4628 16.4348C27.4628 16.4252 27.458 16.4156 27.4532 16.4059C27.4292 16.3482 27.3474 16.341 27.3161 16.3963C27.3089 16.4083 27.3041 16.4228 27.3017 16.4348C27.3017 16.4396 27.2993 16.4468 27.2993 16.4516C27.2921 16.9952 27.2969 17.5363 27.2969 18.0798C27.2969 18.1808 27.3113 18.2842 27.2897 18.3804C27.28 18.4165 27.2512 18.4478 27.2175 18.479C27.1863 18.5079 27.1406 18.5055 27.1117 18.479C27.0828 18.4478 27.054 18.4165 27.0347 18.3828C27.0155 18.3468 27.0299 18.2915 27.0299 18.2434C27.0299 17.6421 27.0323 17.0385 27.0251 16.4372C27.0251 16.4372 27.0251 16.4276 27.0251 16.4228C27.0179 16.3338 26.8856 16.3266 26.8736 16.4156C26.8736 16.4228 26.8736 16.43 26.8736 16.4372C26.8736 16.4396 26.8736 16.442 26.8736 16.4444C26.8664 17.0481 26.8688 17.6493 26.8688 18.253C26.8688 18.3059 26.8808 18.366 26.8616 18.4117C26.8399 18.4598 26.7894 18.5199 26.7461 18.5223C26.7029 18.5223 26.6379 18.4742 26.6163 18.4285C26.5922 18.3804 26.6018 18.3107 26.6018 18.2506C26.6018 17.6469 26.6018 17.0457 26.6018 16.442V16.4348C26.6018 16.4348 26.6018 16.4252 26.6018 16.4204C26.5946 16.3314 26.4648 16.3242 26.4527 16.4132C26.4527 16.4204 26.4527 16.4276 26.4527 16.4348C26.4527 16.4348 26.4527 16.442 26.4527 16.4444C26.4527 17.0072 26.4527 17.57 26.4527 18.1327C26.4527 18.2265 26.4624 18.3251 26.4383 18.4117C26.4263 18.4598 26.3517 18.5103 26.3012 18.5199C26.27 18.5247 26.2146 18.4526 26.193 18.4045C26.1762 18.366 26.1882 18.3131 26.1882 18.265C26.1882 17.6614 26.1882 17.0601 26.1834 16.4564C26.1834 16.4492 26.1834 16.442 26.181 16.4348C26.181 16.4348 26.181 16.4252 26.181 16.4228C26.1738 16.3338 26.0391 16.3266 26.027 16.4156C26.027 16.4228 26.027 16.43 26.027 16.4372C26.027 16.4372 26.027 16.442 26.027 16.4444C26.0222 17.2357 26.0222 18.0245 26.027 18.8157C26.027 19.1067 26.1641 19.3352 26.4239 19.4651C26.5345 19.5204 26.5658 19.5853 26.5561 19.696C26.5032 20.302 26.4527 20.9081 26.4022 21.5166C26.3541 22.1034 26.2892 22.6878 26.2724 23.277C26.2675 23.4862 26.3517 23.7123 26.4527 23.9023C26.6067 24.1909 26.9001 24.1933 27.0396 23.8999C27.1502 23.6642 27.2223 23.3925 27.2295 23.1351C27.2392 22.7359 27.179 22.3343 27.143 21.935C27.0756 21.1895 27.0035 20.4439 26.9409 19.696C26.9361 19.6286 26.9818 19.5228 27.0371 19.494C27.3474 19.3352 27.4773 19.0803 27.4773 18.7436C27.4773 18.3756 27.4773 18.0077 27.4773 17.6397C27.4773 17.2453 27.4797 16.8485 27.4749 16.454L27.4628 16.4492Z" fill="white"/>
    <path d="M25.0866 27.9932C20.7889 27.9932 17.2944 24.4963 17.2944 20.201C17.2944 15.9057 20.7913 12.4088 25.0866 12.4088C29.3819 12.4088 32.8788 15.9057 32.8788 20.201C32.8788 24.4963 29.3819 27.9932 25.0866 27.9932ZM25.0866 13.6402C21.4695 13.6402 18.5258 16.5839 18.5258 20.201C18.5258 23.8181 21.4695 26.7618 25.0866 26.7618C28.7037 26.7618 31.6474 23.8181 31.6474 20.201C31.6474 16.5839 28.7037 13.6402 25.0866 13.6402Z" fill="white"/>
</svg>