<svg xmlns="http://www.w3.org/2000/svg" width="32" height="32" viewBox="0 0 32 32" fill="none">
    <path d="M0 4C0 1.79086 1.79086 0 4 0H28C30.2091 0 32 1.79086 32 4V28C32 30.2091 30.2091 32 28 32H4C1.79086 32 0 30.2091 0 28V4Z" fill="white"/>
    <path fill-rule="evenodd" clip-rule="evenodd" d="M10.8235 27.8495C4.58444 26.1936 3.64014 22.4288 7.15202 18.4436L5.17912 15.4893C-0.786801 21.643 2.82625 27.6089 10.8235 27.8551V27.8495ZM28.239 16.2931C29.9253 22.5232 27.1362 25.2246 21.928 24.1757L20.3542 27.3616C28.6673 29.4525 32.0274 23.3394 28.239 16.292V16.2931ZM9.4824 7.00419C14.0319 2.42886 17.7686 3.49793 19.4661 8.52743L23.0117 8.30259C20.6689 0.0535073 13.6935 0.199648 9.48353 7.00419H9.4824Z" fill="#2B2D93"/>
    <path fill-rule="evenodd" clip-rule="evenodd" d="M18.469 30L18.0002 29.6954C14.9818 27.7324 12.26 25.3475 9.91749 22.6131C7.38723 19.6803 5.35891 16.3495 3.91447 12.7554C3.89199 12.7014 3.8695 12.643 3.84814 12.5924L4.14942 12.4395C7.32639 10.8005 10.7194 9.61968 14.2275 8.93212C18.1835 8.14425 22.2454 8.04272 26.2358 8.63196C26.2268 8.8197 26.2156 9.00069 26.2043 9.18505C26.018 12.693 25.343 16.1577 24.1988 19.479C22.9029 23.2861 20.9638 26.8428 18.4656 29.9944L18.469 30ZM20.3306 27.3627L19.8933 27.193C17.0488 26.0944 14.3765 24.5937 11.9578 22.7368C9.34925 20.7512 7.08691 18.3479 5.26234 15.6242L5.17803 15.5006C5.25222 15.441 5.32642 15.3803 5.40286 15.3218C7.74686 13.4108 10.3496 11.8412 13.1337 10.66C16.2715 9.31155 19.6178 8.51299 23.0263 8.29921C23.0522 8.45435 23.0758 8.60836 23.0983 8.76799C23.5572 11.7075 23.6034 14.6966 23.2354 17.6489C22.8295 21.0289 21.8474 24.3144 20.3317 27.3627H20.3306Z" fill="#D3D4D6"/>
    <path fill-rule="evenodd" clip-rule="evenodd" d="M12.3221 12.3855H15.8643C16.8344 12.625 17.419 13.1354 17.6775 13.7244C17.8137 14.0396 17.8663 14.3846 17.8304 14.7261C17.7921 15.0812 17.6708 15.4224 17.4763 15.7221C17.0525 16.3774 16.2679 16.8732 15.201 16.8912C14.5782 16.7788 14.2646 17.4476 14.7918 17.958L18.3419 21.2518H12.3221C12.2348 21.2515 12.1512 21.2167 12.0895 21.155C12.0278 21.0933 11.993 21.0097 11.9927 20.9224V12.7161C11.9927 12.6286 12.0273 12.5447 12.0891 12.4827C12.1508 12.4208 12.2346 12.3858 12.3221 12.3855ZM18.2587 12.3855H20.7319C20.8188 12.3861 20.9019 12.4209 20.9633 12.4823C21.0248 12.5438 21.0596 12.6269 21.0601 12.7138V20.9202C21.0598 21.0073 21.0252 21.0907 20.9637 21.1524C20.9023 21.214 20.819 21.249 20.7319 21.2496H20.1552L16.5455 17.9007C17.3554 17.6343 18.0496 17.0988 18.5128 16.3831C18.8118 15.9198 18.9974 15.3925 19.0546 14.8441C19.1014 14.4012 19.055 13.9535 18.9183 13.5297C18.7816 13.1059 18.5577 12.7154 18.261 12.3833L18.2587 12.3855Z" fill="#2B2D93"/>
</svg>