<svg xmlns="http://www.w3.org/2000/svg" width="21" height="20" viewBox="0 0 21 20" fill="none">
    <path fill-rule="evenodd" clip-rule="evenodd" d="M7.26476 17.4079C3.36533 16.373 2.77515 14.0199 4.97007 11.5292L3.73701 9.6828C0.00831044 13.5288 2.26647 17.2575 7.26476 17.4114V17.4079ZM18.1494 10.1852C19.2033 14.079 17.4602 15.7673 14.205 15.1118L13.2214 17.103C18.4171 18.4098 20.5172 14.5891 18.1494 10.1845V10.1852ZM6.42656 4.37957C9.26999 1.51999 11.6054 2.18816 12.6664 5.33159L14.8824 5.19107C13.4181 0.0353951 9.0585 0.126733 6.42727 4.37957H6.42656Z" fill="#2B2D93"/>
    <path fill-rule="evenodd" clip-rule="evenodd" d="M12.0432 18.752L11.7502 18.5616C9.8637 17.3347 8.16255 15.8441 6.69849 14.1352C5.11708 12.3021 3.84938 10.2204 2.9466 7.97407C2.93255 7.94034 2.9185 7.90381 2.90515 7.87219L3.09345 7.77664C5.07905 6.75228 7.19971 6.01425 9.39226 5.58453C11.8647 5.09211 14.4035 5.02865 16.8974 5.39693C16.8918 5.51427 16.8848 5.62738 16.8778 5.74261C16.7613 7.93505 16.3394 10.1005 15.6243 12.1763C14.8144 14.5558 13.6024 16.7787 12.0411 18.7484L12.0432 18.752ZM13.2067 17.1037L12.9334 16.9976C11.1556 16.3109 9.48536 15.373 7.97371 14.2125C6.34334 12.9714 4.92938 11.4694 3.78902 9.7671L3.73633 9.68982C3.7827 9.65258 3.82907 9.61464 3.87685 9.5781C5.34185 8.38369 6.96859 7.40273 8.70863 6.66442C10.6697 5.82167 12.7612 5.32257 14.8915 5.18896C14.9077 5.28592 14.9224 5.38218 14.9365 5.48195C15.2233 7.31911 15.2522 9.18734 15.0222 11.0325C14.7685 13.145 14.1547 15.1985 13.2074 17.1037H13.2067Z" fill="#D3D4D6"/>
    <path fill-rule="evenodd" clip-rule="evenodd" d="M8.20135 7.74292H10.4152C11.0216 7.89258 11.3869 8.21156 11.5485 8.57972C11.6336 8.77672 11.6665 8.99232 11.6441 9.20574C11.6201 9.42772 11.5443 9.64096 11.4228 9.82824C11.1579 10.2379 10.6675 10.5477 10.0007 10.5589C9.61146 10.4887 9.41544 10.9067 9.74496 11.2257L11.9638 13.2843H8.20135C8.1468 13.2841 8.09455 13.2624 8.05598 13.2238C8.01742 13.1853 7.99567 13.133 7.99548 13.0785V7.94949C7.99548 7.89482 8.01715 7.84239 8.05574 7.80367C8.09432 7.76495 8.14668 7.74311 8.20135 7.74292ZM11.9118 7.74292H13.4575C13.5118 7.74329 13.5638 7.76502 13.6022 7.80342C13.6405 7.84181 13.6623 7.89378 13.6626 7.94808V13.0771C13.6625 13.1315 13.6408 13.1836 13.6024 13.2222C13.564 13.2607 13.5119 13.2826 13.4575 13.2829H13.0971L10.841 11.1899C11.3472 11.0234 11.7811 10.6887 12.0706 10.2414C12.2574 9.95181 12.3735 9.62228 12.4092 9.27951C12.4384 9.00273 12.4094 8.72289 12.324 8.45801C12.2386 8.19313 12.0986 7.94906 11.9132 7.74152L11.9118 7.74292Z" fill="#2B2D93"/>
</svg>