<svg width="36" height="36" viewBox="0 0 36 36" fill="none" xmlns="http://www.w3.org/2000/svg">
<path d="M10.6949 29.5407C7.96571 29.5407 5.7417 27.3167 5.7417 24.5875C5.7417 21.8583 7.95915 19.6343 10.6949 19.6343C13.4306 19.6343 15.6481 21.8583 15.6481 24.5875C15.6481 27.3167 13.4241 29.5407 10.6949 29.5407ZM10.6949 20.953C8.68737 20.953 7.0538 22.5866 7.0538 24.5941C7.0538 26.6016 8.68737 28.2352 10.6949 28.2352C12.7024 28.2352 14.336 26.6016 14.336 24.5941C14.336 22.5866 12.7024 20.953 10.6949 20.953Z" fill="#3E3E52"/>
<path d="M20.5682 29.5407C17.839 29.5407 15.615 27.3167 15.615 24.5875C15.615 21.8583 17.839 19.6343 20.5682 19.6343C23.2974 19.6343 25.5214 21.8583 25.5214 24.5875C25.5214 27.3167 23.2974 29.5407 20.5682 29.5407ZM20.5682 20.953C18.5607 20.953 16.9271 22.5866 16.9271 24.5941C16.9271 26.6016 18.5607 28.2352 20.5682 28.2352C22.5757 28.2352 24.2093 26.6016 24.2093 24.5941C24.2093 22.5866 22.5757 20.953 20.5682 20.953Z" fill="#3E3E52"/>
<path d="M1.55591 7.85162H26.8533C27.7652 7.85162 28.6312 8.27806 29.1888 8.99971L33.8271 14.996C34.2273 15.5143 34.4438 16.1507 34.4438 16.8002V22.685C34.4438 23.8724 33.4794 24.8303 32.2985 24.8303H1.55591" fill="white"/>
<path d="M32.292 25.4928H1.55595C1.19513 25.4928 0.899902 25.1975 0.899902 24.8367C0.899902 24.4759 1.19513 24.1807 1.55595 24.1807H32.2985C33.1186 24.1807 33.7878 23.5115 33.7878 22.6914V16.8066C33.7878 16.3015 33.6172 15.8029 33.3089 15.4027L28.6706 9.40637C28.2376 8.84873 27.5619 8.51413 26.8533 8.51413H1.55595C1.19513 8.51413 0.899902 8.21891 0.899902 7.85808C0.899902 7.49725 1.19513 7.20203 1.55595 7.20203H26.8533C27.962 7.20203 29.0314 7.72688 29.7072 8.60599L34.3454 14.6023C34.8309 15.2321 35.0999 16.0128 35.0999 16.8132V22.698C35.0933 24.2332 33.8403 25.4928 32.292 25.4928Z" fill="#3E3E52"/>
<path d="M1.55591 11.8141H15.9956C16.3696 11.8141 16.7173 12.0109 16.9075 12.3324L19.0528 15.9604C19.4727 16.6689 18.961 17.5611 18.1409 17.5611H1.55591" fill="#FED9D5"/>
<path d="M18.1409 18.2238H1.55595C1.19513 18.2238 0.899902 17.9286 0.899902 17.5677C0.899902 17.2069 1.19513 16.9117 1.55595 16.9117H18.1409C18.3509 16.9117 18.4559 16.7674 18.4887 16.7083C18.5215 16.6493 18.5936 16.4853 18.4887 16.3016L16.3434 12.6736C16.2712 12.549 16.14 12.4768 15.9957 12.4768H1.55595C1.19513 12.4768 0.899902 12.1816 0.899902 11.8207C0.899902 11.4599 1.19513 11.1647 1.55595 11.1647H15.9957C16.5992 11.1647 17.1634 11.4861 17.4718 12.011L19.6171 15.6455C19.932 16.1835 19.9385 16.8264 19.6302 17.3709C19.3218 17.8958 18.7642 18.2238 18.1409 18.2238Z" fill="#3E3E52"/>
<path d="M33.6961 17.0821H25.0165C24.5573 17.0821 24.1308 16.8394 23.9012 16.4457L22.0315 13.2901C21.5197 12.4241 22.143 11.3285 23.1468 11.3285H30.2387" fill="#FED9D5"/>
<path d="M33.6961 17.7382H25.0165C24.3277 17.7382 23.6847 17.3708 23.337 16.7804L21.4673 13.6248C21.1065 13.0147 21.0999 12.2799 21.4476 11.6566C21.7953 11.0334 22.4317 10.6725 23.1468 10.6725H30.2387C30.5995 10.6725 30.8947 10.9678 30.8947 11.3286C30.8947 11.6894 30.5995 11.9847 30.2387 11.9847H23.1468C22.8122 11.9847 22.6416 12.2143 22.5891 12.3127C22.5366 12.4111 22.4251 12.6669 22.5957 12.9622L24.4654 16.1178C24.5835 16.3146 24.7935 16.4327 25.0165 16.4327H33.6961C34.0569 16.4327 34.3521 16.7279 34.3521 17.0887C34.3521 17.4496 34.0635 17.7382 33.6961 17.7382Z" fill="#3E3E52"/>
<path d="M24.3274 23.0194H17.6685C17.3077 23.0194 17.0125 22.7242 17.0125 22.3634C17.0125 22.0025 17.3077 21.7073 17.6685 21.7073H24.3274C24.6883 21.7073 24.9835 22.0025 24.9835 22.3634C24.9835 22.7242 24.6883 23.0194 24.3274 23.0194Z" fill="#3E3E52"/>
<path d="M14.3816 23.0194H11.003C10.6421 23.0194 10.3469 22.7242 10.3469 22.3634C10.3469 22.0025 10.6421 21.7073 11.003 21.7073H14.3816C14.7425 21.7073 15.0377 22.0025 15.0377 22.3634C15.0377 22.7242 14.749 23.0194 14.3816 23.0194Z" fill="#3E3E52"/>
<path d="M16.4822 15.4058C16.0151 15.4058 15.4737 15.1085 14.8208 14.4981C12.91 12.7146 10.6965 8.88225 10.6965 6.61574C10.6965 3.40441 13.3081 0.798187 16.5141 0.798187C19.7201 0.798187 22.3316 3.40971 22.3316 6.61574C22.3316 9.21666 18.6426 15.2572 16.5459 15.4005L16.4822 15.4058Z" fill="#D84E55"/>
<path d="M16.5137 1.59435C19.2844 1.59435 21.535 3.85024 21.535 6.61571C21.535 9.52449 17.6389 14.5299 16.4924 14.6096C16.4871 14.6096 16.4871 14.6096 16.4818 14.6096C16.381 14.6096 16.0466 14.5565 15.3618 13.9195C13.6049 12.2793 11.487 8.65929 11.487 6.62102C11.4923 3.85025 13.7429 1.59435 16.5137 1.59435ZM16.5137 0.00195312C12.8671 0.00195312 9.8999 2.96912 9.8999 6.61571C9.8999 9.32278 12.453 13.3728 14.279 15.082C15.0964 15.8463 15.7971 16.202 16.4818 16.202H16.519H16.5667H16.5827H16.5986C18.0424 16.1011 19.656 14.1796 20.7547 12.5819C21.6412 11.2921 23.1274 8.80791 23.1274 6.62102C23.1274 2.96912 20.1602 0.00195312 16.5137 0.00195312Z" fill="white"/>
<path d="M16.5137 9.50324C14.985 9.50324 13.7429 8.26117 13.7429 6.73247C13.7429 5.20377 14.985 3.9617 16.5137 3.9617C18.0424 3.9617 19.2845 5.20377 19.2845 6.73247C19.2845 8.26117 18.0424 9.50324 16.5137 9.50324ZM16.5137 4.91715C15.5105 4.91715 14.6984 5.72926 14.6984 6.73247C14.6984 7.73568 15.5105 8.54781 16.5137 8.54781C17.5169 8.54781 18.329 7.73568 18.329 6.73247C18.329 5.72926 17.5169 4.91715 16.5137 4.91715Z" fill="white"/>
</svg>
