<svg xmlns="http://www.w3.org/2000/svg" width="33" height="33" viewBox="0 0 33 33" fill="none">
    <path d="M31.0603 20.6896V22.8354C30.4031 24.1596 29.5375 25.3588 28.5075 26.3936C26.4108 28.5198 23.6029 29.9495 20.4689 30.2977H20.3732L20.2776 30.3173H20.2384L20.1427 30.3369H19.9318L19.8362 30.3566H19.6253L19.51 30.3762H18.4139L18.3354 30.3566H18.0656L17.9896 30.3369C17.8547 30.3369 17.7002 30.3173 17.5678 30.2977H17.4526C16.1013 30.1408 14.8212 29.7901 13.6221 29.2751C13.649 29.2506 13.6785 29.226 13.7055 29.2015C13.8183 29.101 13.9335 28.9906 14.0488 28.8778C15.5496 27.3697 16.3784 25.3661 16.3784 23.2351C16.3784 22.698 16.3245 22.1634 16.2215 21.6435C16.2068 21.5749 16.1921 21.5013 16.1749 21.4302C16.1479 21.3149 16.1185 21.1997 16.0866 21.082C16.2509 21.1457 16.4177 21.2021 16.5869 21.2536C17.3373 21.4842 18.1441 21.6019 18.973 21.6019C19.8019 21.6019 20.6087 21.4866 21.3566 21.2536C22.107 21.0231 22.7986 20.6945 23.4337 20.2482C23.7035 20.0545 24.0125 19.9392 24.3582 19.8632C25.2607 19.6891 26.3201 19.9024 27.301 20.4051C28.2427 20.8882 29.1476 21.6239 29.7239 22.4553C29.8587 22.649 29.9544 22.8231 30.0525 23.0144C30.4669 22.2811 30.8078 21.5038 31.0677 20.6921L31.0603 20.6896Z" fill="#FED9D5"/>
    <path d="M31.9605 12.9551C31.6 11.7363 31.0703 10.5788 30.3837 9.51203C30.3371 9.31094 30.2635 9.11966 30.1654 8.9431C30.0673 8.76653 29.9447 8.60468 29.8 8.45754C29.3905 8.04556 28.8216 7.81013 28.2379 7.81013H27.4752C27.127 6.10824 26.3006 4.57556 25.0867 3.37639C23.4755 1.73825 21.244 0.79657 18.9682 0.79657C16.6925 0.79657 14.4854 1.71373 12.8301 3.37639C11.6138 4.57801 10.7898 6.11069 10.4416 7.81259H9.67893C9.10754 7.81259 8.56069 8.03575 8.13644 8.44037L8.11682 8.46C7.97704 8.59978 7.85197 8.76653 7.75143 8.9529C7.65824 9.12456 7.58467 9.31339 7.53317 9.51203C6.83426 10.6376 6.30457 11.8147 5.95634 13.0139C5.6964 13.9139 5.5272 14.8409 5.45608 15.7727C5.45608 15.7924 5.45362 15.812 5.45117 15.8316V15.8806L5.49531 15.861C5.61793 15.8095 5.7479 15.7605 5.88032 15.7163L5.89749 15.7114C6.05444 15.6575 6.20158 15.6109 6.34381 15.5741L6.36343 15.5692L6.37324 15.4809C6.45171 14.7232 6.5964 13.9728 6.80484 13.2469C6.98141 12.6412 7.20702 12.0354 7.47432 11.4469V11.4591C7.47432 12.0551 7.70238 12.6117 8.11682 13.0286C8.54352 13.4578 9.10019 13.6956 9.67893 13.6956H10.7555L10.8021 13.676C11.0449 13.654 11.2116 13.448 11.1895 13.2003C11.1895 13.1439 11.1846 13.0826 11.1797 13.0188C11.1748 12.9526 11.1699 12.8815 11.1699 12.8079C11.1503 12.6951 11.1503 12.5578 11.1503 12.4278V9.27171H11.1699V9.23983C11.1699 8.94555 11.2043 8.66844 11.2411 8.37417L11.2459 8.33003V8.31776C11.5108 6.65756 12.2735 5.16656 13.4481 4.00417C14.9293 2.51563 16.8887 1.69411 18.9658 1.69411C21.0429 1.69411 23.0023 2.51318 24.4638 4.00417C25.0401 4.57556 25.5208 5.23277 25.896 5.95865C26.2761 6.69679 26.5336 7.48889 26.666 8.31286V8.357C26.7248 8.65372 26.7445 8.95291 26.7616 9.23983V12.8104C26.7518 12.8766 26.7469 12.9428 26.742 13.0065C26.7371 13.0752 26.7322 13.139 26.7224 13.2027C26.7224 13.2591 26.7224 13.3008 26.742 13.345C26.6856 14.061 26.5605 14.5343 26.3447 14.8286C26.1412 15.1082 25.8248 15.1646 25.408 15.1646L24.8439 15.1817C25.2657 14.2989 25.4791 13.3474 25.4791 12.3542V9.61012C25.4791 7.86899 24.7998 6.2284 23.5663 4.98754C22.3597 3.75404 20.6824 3.04532 18.9658 3.04532C17.2492 3.04532 15.5914 3.73442 14.3457 4.98754C13.1121 6.2284 12.4329 7.86899 12.4329 9.61012V12.3542C12.4329 14.0954 13.1121 15.736 14.3457 16.9768C15.6012 18.2152 17.2418 18.8994 18.9658 18.8994C20.6897 18.8994 22.35 18.1981 23.5638 16.9768C23.8287 16.712 24.0788 16.4103 24.3265 16.0572H25.408C25.9671 16.0572 26.5998 15.9714 27.0682 15.3289C27.3306 14.9635 27.4973 14.4289 27.5709 13.7006H28.2355C28.5322 13.7006 28.824 13.6392 29.0962 13.5215C29.3611 13.4063 29.5989 13.242 29.7951 13.036C30.2046 12.6436 30.4401 12.0722 30.4401 11.4665V11.4469C30.7049 11.9938 30.9183 12.5602 31.1095 13.215C31.4529 14.4166 31.627 15.6281 31.627 16.8199C31.627 18.1441 31.4259 19.4463 31.0286 20.692C30.776 21.4792 30.445 22.2419 30.0453 22.958C29.9668 22.8059 29.876 22.6367 29.7412 22.4479C29.187 21.6484 28.2992 20.898 27.306 20.388C26.2859 19.8656 25.2338 19.6719 24.3437 19.8435C23.9587 19.9294 23.6619 20.0544 23.4093 20.2335C22.7889 20.67 22.1121 20.9961 21.3421 21.234C20.599 21.4645 19.7996 21.5798 18.9658 21.5798C18.132 21.5798 17.335 21.4621 16.5895 21.234C16.4228 21.1825 16.256 21.1261 16.0917 21.0623L16.0328 21.0403L16.05 21.1016C16.0819 21.2119 16.1113 21.3247 16.1383 21.4474C16.1554 21.5209 16.1702 21.592 16.1849 21.6607C16.2118 21.7931 16.2339 21.9182 16.2511 22.0408V22.0604L16.2732 22.0653C16.2952 22.0727 16.3198 22.08 16.3418 22.0874C17.2148 22.3326 18.0977 22.4552 18.9658 22.4552C19.8339 22.4552 20.7167 22.3302 21.5897 22.0874C22.3818 21.8471 23.1617 21.467 23.9072 20.9618C24.0592 20.8416 24.2529 20.7607 24.53 20.6969C25.1971 20.567 26.0676 20.7411 26.9137 21.1776C27.7425 21.5749 28.5077 22.2174 29.0177 22.9457C29.2286 23.2302 29.388 23.5465 29.491 23.8898C29.0325 24.5765 28.5003 25.2263 27.9068 25.8247C26.9357 26.8007 25.8199 27.6075 24.5938 28.2206C23.3284 28.8557 21.9772 29.2677 20.5794 29.4467C20.42 29.4615 20.2704 29.4762 20.1257 29.4909L19.9859 29.5056H19.9246L19.775 29.5252H19.4047L19.2944 29.5448H18.5513L18.5121 29.5252H18.1467L18.0633 29.5056H17.9505C16.6851 29.4026 15.4467 29.1108 14.2696 28.6375L14.25 28.6301L14.2353 28.6473C14.1666 28.7233 14.0955 28.7969 14.0219 28.8704C13.9042 28.9882 13.789 29.0961 13.6811 29.1942C13.6516 29.2187 13.6247 29.2432 13.5977 29.2677L13.5585 29.2996L13.6051 29.3192C14.8287 29.8465 16.1211 30.1898 17.4478 30.3443H17.5582C17.693 30.3639 17.8475 30.3835 17.9775 30.3811L18.0609 30.4007H18.3233L18.4091 30.4203H19.5102L19.6205 30.4007H19.8388L19.9295 30.3811H20.1478L20.2385 30.3614H20.2851L20.3759 30.3418H20.4739C23.5148 30.0034 26.3766 28.613 28.5322 26.428C29.5769 25.3784 30.4376 24.1792 31.0924 22.8599C32.0292 20.9716 32.5049 18.9411 32.5049 16.8199C32.5049 15.5226 32.3234 14.2253 31.9654 12.9649L31.9605 12.9551ZM27.6003 8.6856H28.2379C28.4218 8.6856 28.5984 8.72239 28.7651 8.79105C28.9221 8.85726 29.0643 8.95781 29.1771 9.08043C29.4273 9.33301 29.572 9.67633 29.572 10.0246V11.4542C29.572 11.8221 29.4297 12.1654 29.1796 12.3984L29.1698 12.4082V12.4278C28.9319 12.6632 28.5935 12.7957 28.2379 12.7957H27.6346V9.23247C27.6346 9.05345 27.6199 8.87688 27.6003 8.68315V8.6856ZM10.2822 9.23492V12.7981H9.67893C9.33315 12.7981 8.98984 12.6534 8.73725 12.4008C8.48712 12.1679 8.34244 11.8245 8.34244 11.4567V10.027C8.34244 9.67878 8.48712 9.33546 8.73725 9.08287L8.75442 9.06326C9.01682 8.82048 9.34543 8.6856 9.67649 8.6856H10.3141C10.2969 8.86462 10.2797 9.05099 10.2797 9.23492H10.2822ZM19.7824 15.6109C19.7824 15.8659 19.9737 16.067 20.2164 16.067L23.2181 16.0474C23.1788 16.0866 23.142 16.1283 23.1052 16.1676C23.0537 16.224 22.9998 16.2828 22.9434 16.3417C21.8889 17.4207 20.4764 18.0141 18.9658 18.0141C17.4552 18.0141 16.0426 17.4207 14.9685 16.3417C13.9067 15.2749 13.323 13.855 13.323 12.3444V9.68859C13.8576 9.65671 15.5179 9.46543 16.5233 8.3153C17.5925 9.48505 19.905 11.4101 23.5221 11.4101C23.7625 11.4101 23.9587 11.2139 23.9587 10.9736C23.9587 10.7333 23.7723 10.5371 23.5221 10.5371C20.0276 10.5371 17.8475 8.56544 16.8593 7.38589C16.8544 7.37118 16.8421 7.35891 16.8323 7.34665C16.8225 7.33684 16.8102 7.32458 16.8029 7.30742L16.7979 7.30006C16.4007 6.82431 16.2069 6.47854 16.2045 6.47364C16.1456 6.36574 16.05 6.28971 15.9372 6.25783C15.8244 6.22595 15.7042 6.24557 15.6037 6.30688C15.3903 6.4344 15.3168 6.7066 15.4394 6.91014C15.4394 6.9126 15.6135 7.21914 15.947 7.64829C15.2555 8.50904 14.0538 8.74692 13.3696 8.81313C13.5389 7.61641 14.1078 6.47118 14.971 5.58345C16.0524 4.5167 17.4723 3.9306 18.9682 3.9306C20.4641 3.9306 21.8865 4.5167 22.9459 5.58345C24.02 6.66246 24.611 8.0897 24.611 9.60031V12.3444C24.611 13.3278 24.3559 14.2793 23.8532 15.1744H20.2164C19.9761 15.1744 19.7824 15.3706 19.7824 15.6109Z" fill="#1D1D1D"/>
    <path d="M15.3707 23.2351C15.3707 25.1602 14.6031 26.8939 13.3353 28.1691C13.2372 28.2672 13.1391 28.3629 13.0361 28.4536C12.9993 28.4879 12.9601 28.5223 12.9208 28.5541C12.7222 28.7233 12.5162 28.8827 12.3004 29.0274C12.2562 29.0569 12.2121 29.0863 12.168 29.1157C11.0963 29.8073 9.82357 30.2143 8.45029 30.2143C8.18789 30.2143 7.92304 30.1898 7.68272 30.1653C7.44239 30.1408 7.20451 30.0917 6.93966 30.0451C6.9274 30.0427 6.91515 30.0402 6.90289 30.0378C6.81461 30.0206 6.71161 30.0206 6.62823 30.0206C6.59635 30.028 6.55956 30.0378 6.52523 30.0451C6.45411 30.0623 6.383 30.0844 6.31924 30.1162L4.52416 30.9402L4.23234 31.0751C4.21272 31.0849 4.1931 31.0923 4.17348 31.0972C3.8179 31.21 3.46231 30.8764 3.57267 30.5012L3.59718 30.4154L3.92334 29.2996C3.94051 29.231 3.95032 29.1648 3.95522 29.0961C3.96503 28.9808 3.95523 28.868 3.92825 28.7626C3.92825 28.7552 3.9258 28.7503 3.92334 28.7454C3.91844 28.7258 3.91108 28.7062 3.90372 28.6841C3.85222 28.5345 3.76394 28.3898 3.65849 28.2623C2.96449 27.637 2.43725 26.8424 2.0547 25.9768C1.69666 25.1356 1.50293 24.1964 1.50293 23.2326C1.50293 21.3076 2.2705 19.5738 3.53833 18.2986C4.05822 17.7763 4.66394 17.3349 5.33587 16.9965C5.61298 16.8567 5.8999 16.7341 6.19663 16.6311H6.19908C6.90534 16.3858 7.6631 16.2534 8.44783 16.2534C10.3631 16.2534 12.0895 17.048 13.3353 18.2986C13.9385 18.9043 14.4265 19.6131 14.7748 20.3953C14.8091 20.4738 14.841 20.5498 14.8728 20.6283C15.0053 20.9594 15.1132 21.3002 15.1941 21.6534C15.2088 21.7147 15.2211 21.776 15.2333 21.8373C15.3241 22.2885 15.3707 22.7545 15.3707 23.2326V23.2351Z" fill="#D63941"/>
    <path d="M8.45033 16.2559C10.3656 16.2559 12.092 17.0504 13.3377 18.3011C13.941 18.9068 14.429 19.6155 14.7772 20.3978C14.8116 20.4763 14.8434 20.5523 14.8753 20.6308C15.0078 20.9618 15.1157 21.3027 15.1966 21.6558C15.2113 21.7171 15.2236 21.7784 15.2358 21.8397C15.3266 22.291 15.3732 22.7569 15.3732 23.2351C15.3732 25.1601 14.6056 26.8939 13.3377 28.1691C13.2397 28.2672 13.1416 28.3628 13.0386 28.4536C13.0018 28.4879 12.9625 28.5222 12.9233 28.5541C12.7247 28.7233 12.5187 28.8827 12.3029 29.0274C12.2587 29.0568 12.2146 29.0863 12.1705 29.1157C11.0988 29.8072 9.82605 30.2143 8.45277 30.2143C8.19037 30.2143 7.92554 30.1898 7.68521 30.1653C7.44489 30.1408 7.20701 30.0917 6.94216 30.0451C6.9299 30.0427 6.91763 30.0402 6.90537 30.0378C6.81709 30.0206 6.71409 30.0206 6.63071 30.0206C6.59883 30.0279 6.56205 30.0378 6.52772 30.0451C6.4566 30.0623 6.3855 30.0844 6.32174 30.1162L4.52665 30.9402L4.23483 31.0751C4.21521 31.0849 4.1956 31.0922 4.17598 31.0972C4.12693 31.1119 4.08033 31.1192 4.03374 31.1192C3.73456 31.1192 3.48197 30.8249 3.57516 30.5012L3.59968 30.4154L3.92584 29.2996C3.943 29.231 3.95281 29.1647 3.95772 29.0961C3.96753 28.9808 3.95772 28.868 3.93075 28.7626C3.93075 28.7552 3.92829 28.7503 3.92584 28.7454C3.92093 28.7258 3.91357 28.7062 3.90622 28.6841C3.85472 28.5345 3.76643 28.3898 3.66099 28.2623C2.96699 27.637 2.43975 26.8424 2.05719 25.9768C1.69915 25.1356 1.50542 24.1964 1.50542 23.2326C1.50542 21.3076 2.27299 19.5738 3.54083 18.2986C4.06071 17.7763 4.66643 17.3349 5.33836 16.9965C5.61547 16.8567 5.90239 16.7341 6.19912 16.6311H6.20156C6.90782 16.3858 7.66559 16.2534 8.45033 16.2534M8.45033 15.2529C7.57486 15.2529 6.7141 15.3976 5.89013 15.6796C5.88522 15.6796 5.88032 15.682 5.87296 15.6845C5.537 15.7997 5.20593 15.9395 4.88713 16.1014C4.12447 16.4864 3.43292 16.9866 2.83211 17.5924C1.3313 19.1005 0.504883 21.104 0.504883 23.2326C0.504883 24.3166 0.723141 25.4005 1.13758 26.3691C1.13758 26.374 1.14002 26.3765 1.14247 26.3814C1.59615 27.4064 2.19451 28.2672 2.92284 28.944C2.94001 28.971 2.95228 28.9931 2.95963 29.0102C2.95963 29.0102 2.95963 29.0103 2.95963 29.0127C2.95963 29.0176 2.95963 29.0225 2.95963 29.0274C2.95963 29.0299 2.95963 29.0348 2.95963 29.0397L2.64084 30.1309L2.61631 30.2168C2.48388 30.6705 2.56972 31.1462 2.85173 31.5238C3.13129 31.8966 3.57516 32.1198 4.03619 32.1198C4.18578 32.1198 4.33537 32.0977 4.48006 32.0511C4.54137 32.0315 4.60021 32.0094 4.65662 31.9824L4.94844 31.85C4.94844 31.85 4.95335 31.85 4.9558 31.8476L6.74352 31.026C6.75088 31.026 6.75824 31.0285 6.7656 31.0309L6.89556 31.0555C7.11872 31.0971 7.34679 31.1388 7.58711 31.1634C7.85932 31.1903 8.15359 31.2173 8.45522 31.2173C9.96829 31.2173 11.4421 30.7808 12.7173 29.9568C12.7664 29.9249 12.8179 29.8931 12.8669 29.8587C13.1121 29.692 13.35 29.5105 13.5781 29.3168C13.6222 29.28 13.6664 29.2408 13.708 29.2015C13.8209 29.101 13.9361 28.9931 14.0514 28.8778C15.5522 27.3697 16.3786 25.3661 16.3786 23.2375C16.3786 22.7005 16.3246 22.1659 16.2217 21.646C16.2069 21.5773 16.1922 21.5038 16.1751 21.4327C16.0843 21.0378 15.9617 20.6455 15.8097 20.2654C15.7753 20.1771 15.7385 20.0888 15.6944 19.9932C15.6919 19.9858 15.6895 19.9809 15.6846 19.9735C15.2898 19.0907 14.7405 18.2913 14.0489 17.5973C12.5456 16.0866 10.5593 15.2553 8.45033 15.2553V15.2529Z" fill="white"/>
    <path d="M5.95807 23.7706C6.37275 23.3559 6.37275 22.6836 5.95808 22.2689C5.5434 21.8542 4.87107 21.8542 4.4564 22.2689C4.04172 22.6836 4.04173 23.3559 4.45641 23.7706C4.87108 24.1852 5.54339 24.1852 5.95807 23.7706Z" fill="white"/>
    <path d="M8.389 24.0811C8.97544 24.0811 9.45083 23.6057 9.45083 23.0192C9.45083 22.4328 8.97544 21.9574 8.389 21.9574C7.80256 21.9574 7.32715 22.4328 7.32715 23.0192C7.32715 23.6057 7.80256 24.0811 8.389 24.0811Z" fill="white"/>
    <path d="M12.3219 23.7707C12.7365 23.3561 12.7365 22.6837 12.3219 22.2691C11.9072 21.8544 11.2349 21.8544 10.8202 22.2691C10.4055 22.6837 10.4055 23.3561 10.8202 23.7707C11.2349 24.1854 11.9072 24.1854 12.3219 23.7707Z" fill="white"/>
</svg>