<svg width="36" height="36" viewBox="0 0 36 36" fill="none" xmlns="http://www.w3.org/2000/svg">
<path d="M11.4023 8.78888H3.3451C2.37659 8.78888 1.58667 9.57879 1.58667 10.5473V13.5765C1.58667 13.8375 1.77213 14.0573 2.03315 14.0916C3.79844 14.3114 5.15847 15.8157 5.15847 17.636C5.15847 19.4562 3.79844 20.9605 2.03315 21.1803C1.779 21.2146 1.58667 21.4344 1.58667 21.6954V24.7177C1.58667 25.6931 2.37659 26.483 3.35196 26.483H11.4023V8.78888Z" fill="#FED9D5"/>
<path d="M32.6614 27.17H3.35208C1.99892 27.17 0.899902 26.0709 0.899902 24.7178V21.6955C0.899902 21.091 1.34638 20.5759 1.94397 20.5003C3.38643 20.3217 4.4717 19.0922 4.4717 17.636C4.4717 16.1798 3.38643 14.9503 1.94397 14.7717C1.34638 14.6961 0.899902 14.181 0.899902 13.5765V10.5474C0.899902 9.20106 1.99892 8.10205 3.34521 8.10205H32.6477C34.0008 8.10205 35.0999 9.20107 35.0999 10.5542V24.7246C35.1067 26.0778 34.0077 27.17 32.6614 27.17ZM2.27367 21.8397V24.7178C2.27367 25.3154 2.75449 25.7962 3.35208 25.7962H32.6614C33.2521 25.7962 33.733 25.3154 33.733 24.7246V10.5542C33.733 9.95664 33.2521 9.47582 32.6546 9.47582H3.35208C2.76136 9.47582 2.28054 9.95664 2.28054 10.5474V13.4323C4.32746 13.762 5.85234 15.541 5.85234 17.636C5.85234 19.731 4.32059 21.51 2.27367 21.8397Z" fill="#3E3E52"/>
<path d="M26.8983 18.4467H18.9579C18.5801 18.4467 18.271 18.1376 18.271 17.7598C18.271 17.3821 18.5801 17.073 18.9579 17.073H26.8983C27.276 17.073 27.5851 17.3821 27.5851 17.7598C27.5851 18.1376 27.276 18.4467 26.8983 18.4467Z" fill="#3E3E52"/>
<path d="M28.959 23.028H22.6671C22.2893 23.028 21.9802 22.7189 21.9802 22.3412C21.9802 21.9634 22.2893 21.6543 22.6671 21.6543H28.959C29.3368 21.6543 29.6459 21.9634 29.6459 22.3412C29.6459 22.7189 29.3368 23.028 28.959 23.028Z" fill="#3E3E52"/>
<path d="M11.4022 14.3048C11.0244 14.3048 10.7153 13.9957 10.7153 13.6179V10.891C10.7153 10.5132 11.0244 10.2041 11.4022 10.2041C11.78 10.2041 12.0891 10.5132 12.0891 10.891V13.6179C12.0891 14.0025 11.78 14.3048 11.4022 14.3048Z" fill="#3E3E52"/>
<path d="M11.4025 19.6898C11.0247 19.6898 10.7156 19.3807 10.7156 19.0029V16.276C10.7156 15.8982 11.0247 15.5891 11.4025 15.5891C11.7802 15.5891 12.0893 15.8982 12.0893 16.276V19.0029C12.0893 19.3807 11.7802 19.6898 11.4025 19.6898Z" fill="#3E3E52"/>
<path d="M11.4025 25.0681C11.0247 25.0681 10.7156 24.759 10.7156 24.3812V21.6543C10.7156 21.2765 11.0247 20.9674 11.4025 20.9674C11.7802 20.9674 12.0893 21.2765 12.0893 21.6543V24.3812C12.0893 24.759 11.7802 25.0681 11.4025 25.0681Z" fill="#3E3E52"/>
<path d="M27.9002 15.3266C23.9144 15.3266 20.6755 12.0877 20.6755 8.10193C20.6755 4.11613 23.9144 0.877289 27.9002 0.877289C31.886 0.877289 35.1248 4.11613 35.1248 8.10193C35.1248 12.0877 31.8802 15.3266 27.9002 15.3266Z" fill="#D84E55"/>
<path d="M27.9001 1.75267C31.4073 1.75267 34.2493 4.59468 34.2493 8.10196C34.2493 11.6092 31.4073 14.4512 27.9001 14.4512C24.3928 14.4512 21.5508 11.6092 21.5508 8.10196C21.5508 4.60052 24.3928 1.75267 27.9001 1.75267ZM27.9001 0.00195312C23.4357 0.00195312 19.8 3.63762 19.8 8.10196C19.8 12.5663 23.4357 16.202 27.9001 16.202C32.3644 16.202 36 12.5663 36 8.10196C36 3.63762 32.3644 0.00195312 27.9001 0.00195312Z" fill="white"/>
<path d="M27.0657 11.0255L24.3929 8.68538C24.1478 8.47529 24.1245 8.10181 24.3404 7.86254C24.5563 7.61744 24.924 7.5941 25.1633 7.81002L26.9898 9.41485L30.6022 5.59827C30.8239 5.36484 31.1916 5.35317 31.425 5.57492C31.6584 5.79668 31.6701 6.16433 31.4484 6.39776L27.0657 11.0255Z" fill="white"/>
</svg>
