<svg width="67" height="36" viewBox="0 0 67 36" fill="none" xmlns="http://www.w3.org/2000/svg">
<path d="M52.0404 8.06281H49.4096V18.9879H52.0404V8.06281Z" fill="#D84E55"/>
<path d="M2.63081 14.9239C2.65202 14.691 2.7222 14.4652 2.83677 14.2611C2.95135 14.057 3.10776 13.8791 3.29584 13.7392C3.68063 13.4484 4.183 13.3035 4.80294 13.3045C4.93603 13.3028 5.06911 13.3079 5.20168 13.3198V10.9184C4.678 10.909 4.16093 11.0359 3.70154 11.2865C3.25642 11.5386 2.88682 11.9044 2.63081 12.3462V11.0212H0V18.9865H2.63081V14.9239Z" fill="#D84E55"/>
<path d="M47.6195 11.0226H45.0041V18.988H47.6195V11.0226Z" fill="#D84E55"/>
<path d="M13.9223 15.2339C13.9223 13.8987 13.5723 12.8481 12.8724 12.0824C12.1726 11.3166 11.1725 10.9338 9.87217 10.9338C9.11179 10.9182 8.35964 11.0928 7.6847 11.4421C7.06557 11.7696 6.55693 12.2716 6.22221 12.8852C5.86712 13.5482 5.68901 14.2909 5.70497 15.0422C5.68884 15.7811 5.86461 16.5116 6.21524 17.163C6.55253 17.7694 7.06431 18.2614 7.6847 18.5755C8.38156 18.9228 9.15314 19.095 9.93212 19.0769C10.6122 19.0875 11.2877 18.9648 11.9202 18.7157C12.4943 18.4834 13.0075 18.1233 13.4204 17.6629L12.0457 16.2936C11.7939 16.5491 11.4953 16.7541 11.166 16.8977C10.851 17.0339 10.5111 17.1039 10.1677 17.1033C9.75351 17.116 9.34716 16.9887 9.01475 16.7421C8.68444 16.4787 8.45066 16.114 8.34973 15.7046H13.9069C13.9167 15.5963 13.9223 15.4394 13.9223 15.2339ZM8.29117 14.306C8.35575 13.8842 8.55068 13.4929 8.84884 13.1866C9.13534 12.9193 9.51314 12.7706 9.90563 12.7706C10.2981 12.7706 10.6759 12.9193 10.9624 13.1866C11.1002 13.336 11.207 13.511 11.2767 13.7017C11.3463 13.8924 11.3774 14.095 11.3681 14.2977L8.29117 14.306Z" fill="#D84E55"/>
<path d="M33.9204 14.299C34.2484 13.6806 34.4112 12.9885 34.393 12.2893C34.393 11.1402 34.0161 10.249 33.2623 9.61569C32.5085 8.98235 31.4466 8.66613 30.0766 8.66706H25.4215V18.9879H28.1262V16.131H30.1366L31.6437 18.9879H34.7025L32.5499 15.6158C33.1274 15.3216 33.6044 14.8633 33.9204 14.299ZM31.3704 13.5698C31.0693 13.8476 30.6431 13.9865 30.092 13.9865H28.1262V10.8198H30.092C30.6422 10.8198 31.0684 10.955 31.3704 11.2254C31.6702 11.4948 31.8207 11.881 31.8207 12.381C31.8207 12.881 31.6702 13.2948 31.3704 13.5698Z" fill="#D84E55"/>
<path d="M23.3371 18.9879V8.66706H20.7063V12.0685C20.429 11.712 20.0726 11.4244 19.6649 11.2282C19.2322 11.0271 18.7593 10.9264 18.2818 10.9338C17.6071 10.9195 16.9417 11.093 16.3607 11.4351C15.8047 11.7729 15.3583 12.2633 15.0752 12.8476C14.7582 13.5091 14.6011 14.2356 14.6165 14.9685C14.6017 15.7137 14.7611 16.4522 15.0822 17.1255C15.3702 17.7233 15.824 18.2264 16.3899 18.5754C16.9789 18.9267 17.6555 19.1053 18.3418 19.0907C18.8085 19.0981 19.2708 19.0004 19.6941 18.8047C20.0967 18.6101 20.4445 18.3189 20.7063 17.9573V18.9879H23.3371ZM20.2337 16.474C20.0825 16.6545 19.8921 16.7983 19.6769 16.8945C19.4617 16.9908 19.2273 17.037 18.9915 17.0296C18.7538 17.0372 18.5175 16.9913 18.3002 16.8951C18.0829 16.7988 17.8903 16.6549 17.7367 16.474C17.4254 16.0595 17.2571 15.5557 17.2571 15.0379C17.2571 14.5202 17.4254 14.0164 17.7367 13.6018C17.8942 13.4288 18.0862 13.2903 18.3004 13.1954C18.5146 13.1004 18.7464 13.051 18.9809 13.0504C19.2154 13.0497 19.4474 13.0978 19.6621 13.1916C19.8769 13.2853 20.0697 13.4226 20.2281 13.5948C20.5432 13.9587 20.7007 14.4398 20.7007 15.0379C20.7256 15.5573 20.5595 16.0679 20.2337 16.474Z" fill="#D84E55"/>
<path d="M38.5602 14.2033C37.574 14.2126 36.8179 14.4282 36.2918 14.8504C35.7658 15.2727 35.5023 15.8602 35.5013 16.613C35.5013 17.3602 35.7449 17.9621 36.2319 18.4186C36.7189 18.875 37.3867 19.1032 38.2353 19.1032C39.3088 19.1032 40.1119 18.7644 40.6445 18.0867V18.9852H43.2307V13.8032C43.2204 12.8893 42.91 12.1801 42.2993 11.6755C41.6887 11.1709 40.8317 10.9185 39.7285 10.9185C39.1037 10.9167 38.4809 10.988 37.8728 11.1311C37.2303 11.2904 36.6043 11.5098 36.0032 11.7866L36.7324 13.5574C37.1366 13.3589 37.5598 13.2012 37.9955 13.0866C38.3641 12.9853 38.7439 12.9307 39.1262 12.9241C39.6183 12.9241 39.9962 13.0282 40.2569 13.2338C40.3877 13.3397 40.4914 13.4749 40.5595 13.6285C40.6276 13.7821 40.6581 13.9496 40.6486 14.1172V14.206L38.5602 14.2033ZM40.6445 16.2936C40.5611 16.6034 40.3615 16.8693 40.0868 17.0366C39.778 17.2321 39.4181 17.3321 39.0523 17.3241C38.768 17.3405 38.4874 17.2542 38.2618 17.0811C38.1668 17.0012 38.0915 16.9007 38.0414 16.7873C37.9914 16.6739 37.9681 16.5506 37.9732 16.4269C37.9732 15.8769 38.3427 15.6018 39.0816 15.6018H40.6486L40.6445 16.2936Z" fill="#D84E55"/>
<path d="M47.2878 7.74623C47.0167 7.49524 46.6603 7.35574 46.2902 7.35574C45.9201 7.35574 45.5638 7.49524 45.2927 7.74623C45.0407 8.02068 44.901 8.37907 44.901 8.75101C44.901 9.12295 45.0407 9.48147 45.2927 9.75592C45.5617 10.0109 45.9189 10.1532 46.2902 10.1532C46.6616 10.1532 47.0187 10.0109 47.2878 9.75592C47.5397 9.48147 47.6795 9.12295 47.6795 8.75101C47.6795 8.37907 47.5397 8.02068 47.2878 7.74623Z" fill="#D84E55"/>
<path d="M66.36 24.0058L64.8501 25.8321H63.969L64.2172 19.5099C64.238 18.9323 64.1432 18.3563 63.9384 17.8155L59.2776 5.38618C58.9631 4.55589 58.4026 3.84047 57.6706 3.33471C56.9386 2.82895 56.0696 2.55679 55.1787 2.55427H47.1887L45.7388 0.933438C45.4761 0.639643 45.1539 0.404602 44.7934 0.243736C44.433 0.0828706 44.0425 -0.000272073 43.6475 8.63934e-07H39.6602C39.0758 -0.000457671 38.5061 0.181621 38.0309 0.520431C37.5558 0.85924 37.1992 1.33783 37.0112 1.88898L36.784 2.55427H0V5.19318H55.1843C55.535 5.19376 55.8774 5.30026 56.1661 5.49863C56.4548 5.69699 56.6764 5.97791 56.8016 6.3043L61.4623 18.7321C61.543 18.9457 61.5795 19.1735 61.5697 19.4016L61.2825 26.7516C61.2662 27.196 61.0772 27.6166 60.7554 27.9247C60.4336 28.2328 60.0042 28.4043 59.5578 28.403H53.4625C53.1212 28.4034 52.7875 28.303 52.5036 28.1143C52.2197 27.9257 51.9983 27.6573 51.8676 27.3432L50.7118 24.5655C50.4114 23.8393 49.9009 23.2186 49.2451 22.7825C48.5894 22.3465 47.8182 22.1147 47.0298 22.1168H47.0172L11.205 22.2557C10.4613 22.2554 9.73251 22.4636 9.10206 22.8566C8.47161 23.2496 7.96496 23.8115 7.64009 24.478L7.0643 25.6405C6.92101 25.9281 6.70026 26.1702 6.42671 26.34C6.15317 26.5097 5.83763 26.6003 5.51536 26.6016H0V29.2405H5.51536C6.22084 29.2375 6.91528 29.0658 7.54025 28.7397C8.16522 28.4137 8.70246 27.9428 9.10677 27.3668C8.64699 29.0254 8.83368 30.7958 9.62939 32.3229C10.4251 33.8501 11.771 35.0212 13.3971 35.6011C15.0232 36.181 16.8092 36.1269 18.3971 35.4499C19.9849 34.7728 21.257 33.5226 21.9583 31.9502H18.8423C18.2769 32.5837 17.5315 33.0311 16.705 33.2329C15.8785 33.4347 15.01 33.3814 14.2146 33.08C13.4192 32.7787 12.7345 32.2436 12.2515 31.5457C11.7684 30.8479 11.5097 30.0201 11.5097 29.1724C11.5097 28.3247 11.7684 27.497 12.2515 26.7991C12.7345 26.1012 13.4192 25.5662 14.2146 25.2649C15.01 24.9636 15.8785 24.9103 16.705 25.1121C17.5315 25.3138 18.2769 25.7611 18.8423 26.3946H21.9541C21.7053 25.8428 21.3842 25.3263 20.9991 24.8586L23.892 24.8461C23.502 25.3167 23.1774 25.8375 22.9272 26.3946H26.0432C26.4364 25.9536 26.919 25.6007 27.4591 25.3589C27.9992 25.1172 28.5845 24.9922 29.1766 24.9922C29.7687 24.9922 30.3541 25.1172 30.8942 25.3589C31.4343 25.6007 31.9169 25.9536 32.3101 26.3946H35.4274C35.1688 25.8215 34.8325 25.2865 34.4278 24.8044L37.41 24.7918C37.0001 25.2768 36.6599 25.8163 36.3992 26.3946H39.5207C40.0862 25.7606 40.8318 25.3129 41.6587 25.1108C42.4855 24.9088 43.3545 24.962 44.1503 25.2633C44.946 25.5646 45.6311 26.1 46.1144 26.7981C46.5978 27.4963 46.8566 28.3243 46.8566 29.1724C46.8566 30.0205 46.5978 30.8487 46.1144 31.5468C45.6311 32.245 44.946 32.7802 44.1503 33.0815C43.3545 33.3829 42.4855 33.436 41.6587 33.234C40.8318 33.0319 40.0862 32.5842 39.5207 31.9502H36.4034C37.0421 33.3766 38.1531 34.5413 39.5504 35.2497C40.9478 35.958 42.5468 36.1671 44.0803 35.8418C45.6138 35.5166 46.9887 34.6768 47.9752 33.4628C48.9618 32.2489 49.5001 30.7343 49.5003 29.1724C49.5002 28.9288 49.4867 28.6854 49.4598 28.4432C49.8009 29.2167 50.3609 29.8743 51.0713 30.3356C51.7817 30.7969 52.6117 31.0419 53.4597 31.0405H59.5578C60.408 31.0429 61.2404 30.7978 61.9526 30.3351C62.6647 29.8724 63.2255 29.2124 63.5661 28.4363H64.9519L66.3628 29.9461C66.4123 29.9986 66.4764 30.0352 66.5469 30.0511C66.6174 30.0669 66.6911 30.0612 66.7584 30.0349C66.8257 30.0086 66.8835 29.9628 66.9243 29.9034C66.9651 29.8439 66.9871 29.7737 66.9874 29.7017L67 24.2391C67.001 24.1646 66.9787 24.0916 66.9363 24.0302C66.8938 23.9689 66.8333 23.9221 66.763 23.8965C66.6928 23.8709 66.6162 23.8676 66.5441 23.8871C66.4719 23.9067 66.4076 23.9483 66.36 24.0058Z" fill="#D84E55"/>
<path d="M29.1816 33.3492C28.5891 33.3496 28.0034 33.2246 27.4631 32.9825C26.9227 32.7405 26.4402 32.3868 26.0474 31.9449H22.9301C23.4679 33.1488 24.3445 34.1716 25.4538 34.8893C26.5631 35.607 27.8574 35.989 29.1802 35.989C30.5029 35.989 31.7972 35.607 32.9065 34.8893C34.0158 34.1716 34.8924 33.1488 35.4303 31.9449H32.3143C31.9216 32.3866 31.4393 32.7402 30.8993 32.9823C30.3592 33.2243 29.7738 33.3494 29.1816 33.3492Z" fill="#D84E55"/>
<path d="M43.9821 29.1671C43.9821 28.8171 43.8426 28.4816 43.5942 28.2342C43.3458 27.9868 43.0089 27.8476 42.6576 27.8476H15.7082C15.3569 27.8476 15.02 27.9868 14.7716 28.2342C14.5232 28.4816 14.3837 28.8171 14.3837 29.1671C14.3837 29.517 14.5232 29.8527 14.7716 30.1001C15.02 30.3476 15.3569 30.4865 15.7082 30.4865H42.6534C42.8277 30.4871 43.0004 30.4534 43.1616 30.3874C43.3228 30.3213 43.4693 30.2242 43.5927 30.1016C43.7161 29.979 43.8141 29.8334 43.8809 29.673C43.9477 29.5126 43.9821 29.3407 43.9821 29.1671Z" fill="#D84E55"/>
</svg>
